<svg fill="none" height="67" viewBox="0 0 241 67" width="241" xmlns="http://www.w3.org/2000/svg"><g fill="#2f4ae4"><path d="m0 12.4651h17.5251c4.2475-.1151 8.4634.7615 12.3143 2.5606 3.3325 1.6084 6.0936 4.2003 7.9122 7.4271 1.9045 3.5374 2.8519 7.5125 2.748 11.5302.1089 4.0383-.8289 8.036-2.7221 11.603-1.8035 3.2294-4.5574 5.823-7.8863 7.4271-3.8669 1.8003-8.0983 2.6769-12.3609 2.5605h-17.5303zm16.4207 33.7597c1.691.1312 3.391-.0768 5.0007-.6119s3.0966-1.3865 4.3737-2.5044c1.1205-1.2764 1.9733-2.7654 2.5077-4.3786s.7396-3.3176.6033-5.0118c.1432-1.6946-.0587-3.4008-.5935-5.015-.5347-1.6141-1.3912-3.1027-2.5175-4.3753-1.2856-1.1-2.7758-1.9343-4.3847-2.4548-1.6088-.5206-3.3046-.7172-4.9897-.5784h-5.5323v24.9302z"/><path d="m73.6262 42.5892h-18.6658c.1989 1.6333 1.0018 3.1325 2.2503 4.2018 1.3852.9392 3.0443 1.3872 4.7131 1.2724 3.0215-.0396 5.9604-.9938 8.4307-2.7371l2.7532 7.0792c-1.6444 1.1697-3.4771 2.0481-5.4182 2.5969-2.0465.6199-4.1721.9383-6.3101.9452-3.0823.0787-6.1402-.567-8.9285-1.8853-2.432-1.1857-4.4518-3.0768-5.7968-5.4275-1.4133-2.5294-2.1257-5.3914-2.0636-8.2893-.0504-2.8082.6058-5.5839 1.9081-8.0712 1.222-2.3188 3.078-4.241 5.3509-5.5418 2.3694-1.3438 5.055-2.0271 7.7774-1.9788 1.8864-.0737 3.7666.2592 5.5135.976 1.747.7168 3.3199 1.8009 4.6127 3.179 2.5914 3.101 3.9681 7.0406 3.8731 11.0836zm-18.6658-5.1938h9.4366c-.235-3.5699-1.8061-5.3548-4.7131-5.3548s-4.4815 1.7849-4.7235 5.3548z"/><path d="m98.2962 25.4497h10.6548l-13.4339 30.124h-8.9907l-13.2216-30.124h11.4068l6.6212 16.9785z"/><path d="m128.068 25.9691h6.741v7.7907h-7.259v21.8139h-10.889v-21.8139h-5.185v-7.7907h5.553c-.019-1.7548.341-3.4929 1.057-5.0944.717-1.6015 1.771-3.0283 3.091-4.1818 3.388-2.3643 7.43-3.6049 11.558-3.5473l3.743-.2337.622 7.7231-2.883.1143c-1.651-.052-3.289.3048-4.77 1.0388-.48.361-.859.8398-1.1 1.3901-.242.5504-.338 1.1538-.279 1.7521z"/><path d="m144.364 54.0158c-2.416-1.208-4.424-3.1032-5.77-5.4483-1.4-2.5314-2.1-5.3912-2.028-8.2841-.075-2.885.625-5.7372 2.028-8.2582 1.345-2.3198 3.344-4.1913 5.745-5.3807 2.729-1.2442 5.693-1.8879 8.692-1.8879s5.963.6437 8.693 1.8879c2.403 1.1886 4.403 3.0601 5.75 5.3807 1.402 2.521 2.102 5.3732 2.027 8.2582.072 2.8929-.627 5.7527-2.027 8.2841-1.376 2.3576-3.418 4.2536-5.87 5.4483-2.715 1.2608-5.673 1.914-8.666 1.914-2.994 0-5.951-.6532-8.667-1.914zm14.441-13.6389c0-5.0346-1.924-7.5518-5.771-7.5518-3.848 0-5.775 2.5172-5.782 7.5518 0 5.0345 1.924 7.5517 5.771 7.5517 3.848 0 5.773-2.5172 5.776-7.5517z"/><path d="m174.214 55.5739v-43.1086h10.889v43.1086z"/><path d="m191.324 10.3877h11.407v9.8682h-11.407zm0 45.1133v-30.0513h10.889v30.124z"/><path d="m214.978 54.0158c-2.416-1.208-4.424-3.1032-5.771-5.4483-1.399-2.5314-2.099-5.3912-2.027-8.2841-.075-2.885.625-5.7372 2.027-8.2582 1.346-2.3198 3.344-4.1913 5.745-5.3807 2.73-1.2442 5.694-1.8879 8.693-1.8879s5.963.6437 8.692 1.8879c2.401 1.1894 4.4 3.0609 5.745 5.3807 1.403 2.521 2.103 5.3732 2.028 8.2582.072 2.8929-.628 5.7527-2.028 8.2841-1.356 2.347-3.372 4.2419-5.796 5.4483-2.716 1.2608-5.674 1.914-8.667 1.914s-5.951-.6532-8.667-1.914zm14.44-13.5039c0-5.0345-1.923-7.5518-5.771-7.5518-3.847 0-5.77 2.5173-5.77 7.5518s1.923 7.5518 5.77 7.5518c3.848 0 5.763-2.5173 5.745-7.5518z"/></g></svg>