<svg width="90" height="48" xmlns="http://www.w3.org/2000/svg" class=""><g fill="#EE2C3C" fill-rule="nonzero"><path d="M14.381 19.25v11.918h-4.16v-1.48c-.847 1.17-2.068 1.839-3.811 1.839-2.79 0-4.409-1.624-4.409-4.61V19.25h4.16v6.807c0 1.577.647 2.222 1.943 2.222 1.37 0 2.117-.765 2.117-2.34V19.25h4.16zM29.85 25.198c0 1.385-.248 2.508-.672 3.44-.872 1.79-2.54 2.865-4.832 2.865-1.62 0-2.865-.526-3.737-1.648v6.138h-4.16V19.25h4.06v1.433c.896-1.218 2.167-1.791 3.836-1.791 2.291 0 3.96 1.075 4.832 2.89.425.932.674 2.054.674 3.416zm-4.432 0c0-.836-.1-1.433-.3-1.864-.372-.787-1.12-1.194-2.142-1.194-1.57 0-2.416.955-2.416 2.722v.645c0 1.768.847 2.724 2.416 2.724 1.022 0 1.77-.406 2.143-1.195.198-.43.299-1.003.299-1.838zM50.802 19.25h4.136v1.075c.647-1.002 1.345-1.41 2.342-1.41 1.494 0 2.441.933 2.441 2.317 0 1.338-.972 2.317-2.39 2.317-.873 0-1.62-.43-1.944-1.075-.349.143-.424.334-.424 1.17v7.523h-4.16V19.25zM72.89 24.314v6.854h-4.16V29.76c-.822 1.099-2.094 1.743-4.112 1.743-1.968 0-3.437-.668-4.06-2.006-.25-.478-.349-1.027-.349-1.696 0-.645.1-1.17.299-1.624.897-1.863 3.314-2.293 6.352-2.293h1.868v-.191c0-.716-.05-.979-.2-1.29-.248-.525-.82-.788-1.719-.788-.97 0-1.519.24-1.768.764-.099.239-.124.406-.15.717h-4.234c.025-.645.15-1.194.374-1.671.822-1.744 2.94-2.532 5.73-2.532 3.013 0 4.782.764 5.605 2.483.349.789.523 1.768.523 2.938zm-4.386 3.272c.175-.334.225-.668.225-1.313v-.167h-1.595c-1.195 0-2.167.119-2.44.74-.076.143-.125.31-.125.526 0 .215.025.382.124.573.25.526.897.716 1.645.716 1.12 0 1.843-.382 2.166-1.075zM88 14.307v16.861h-4.06v-1.432c-.897 1.194-2.142 1.767-3.836 1.767-2.292 0-3.96-1.051-4.832-2.866-.425-.931-.673-2.054-.673-3.44 0-1.36.248-2.483.673-3.415.847-1.815 2.54-2.89 4.832-2.89 1.619 0 2.84.526 3.737 1.649v-6.234H88zm-4.11 10.556c0-1.767-.848-2.722-2.416-2.722-1.022 0-1.768.406-2.142 1.194-.2.43-.3 1.027-.3 1.864 0 .86.1 1.433.3 1.886.374.788 1.12 1.195 2.142 1.195 1.57 0 2.416-.955 2.416-2.723v-.694zM41.4 22.2v3.074h2.683l-.1.4c-.335 1.336-2 2.233-3.345 2.233-1.871 0-4.294-.864-4.294-4.982 0-3.41 1.56-5.04 3.945-5.04 1.305 0 2.31.296 2.915 1.167.251.382.485.906.509 1.343h4.762s.113-2.117-1.683-3.962c-.029-.03-.057-.056-.085-.083-1.447-1.506-3.624-2.344-6.318-2.344-5.499 0-9.052 3.51-9.052 8.942 0 6.282 4.5 8.511 8.355 8.511 2.162 0 4.11-.619 5.295-1.838l.055 1.547h3.727V22.2H41.4z"></path></g></svg>