<svg width="1268" height="205" viewBox="0 0 1268 205" fill="none" xmlns="http://www.w3.org/2000/svg">
<path d="M617.972 54.566C592.398 54.566 567.109 62.3038 547.876 77.5783V2.41162H509.764V128.979C509.764 170.08 556.994 203.392 615.265 203.392C673.536 203.392 720.765 170.08 720.765 128.979C720.765 87.8785 676.243 54.566 617.972 54.566ZM615.194 174.702C579.362 174.702 550.369 154.202 550.369 128.979C550.369 103.756 579.433 83.256 615.194 83.256C651.025 83.256 680.018 103.756 680.018 128.979C680.018 154.202 651.025 174.702 615.194 174.702Z" fill="white"/>
<path d="M854.262 54.566C828.688 54.566 803.399 62.3038 784.165 77.5783V2.41162H746.054V128.979C746.054 170.08 793.284 203.392 851.555 203.392C909.826 203.392 957.055 170.08 957.055 128.979C957.055 87.8785 912.461 54.566 854.262 54.566ZM851.483 174.702C815.652 174.702 786.659 154.202 786.659 128.979C786.659 103.756 815.723 83.256 851.483 83.256C887.315 83.256 916.308 103.756 916.308 128.979C916.308 154.202 887.315 174.702 851.483 174.702Z" fill="white"/>
<path d="M295.202 141.993V58.5857H336.091V141.741C336.091 162.995 353.544 176.611 382.964 176.611C412.741 176.611 429.838 163.497 429.838 141.741V58.5857H471.083V141.993C471.083 180.531 437.959 203.342 382.964 203.342C329.395 203.392 295.202 179.777 295.202 141.993Z" fill="white"/>
<path d="M1030.78 199.975H989.895V2.41162H1030.78V199.975Z" fill="white"/>
<path d="M1262.3 140.435H1105.8C1111.78 162.442 1133.65 177.416 1172.33 177.416C1194.98 177.416 1222.55 171.386 1240.36 162.191L1257.46 183.445C1237.01 194.197 1204.67 203.091 1170.83 203.091C1095.75 203.091 1063.41 166.11 1063.41 128.879C1063.41 107.625 1072.67 90.0895 1091.69 76.1716C1110.64 62.2537 1135.57 55.1692 1165.71 55.1692C1194.34 55.1692 1218.13 61.4498 1236.37 74.3126C1254.61 87.1753 1263.87 104.46 1263.87 126.517C1263.73 130.487 1263.37 135.21 1262.3 140.435ZM1105.72 116.82H1222.48C1219.13 94.5111 1195.7 80.0908 1165.56 80.0908C1134.72 80.0908 1111.71 94.8126 1105.72 116.82Z" fill="white"/>
<path d="M165.339 54.566C139.765 54.566 114.476 62.3038 95.2425 77.5783V2.41162H57.06V128.979C57.06 170.08 104.289 203.392 162.56 203.392C220.831 203.392 268.061 170.08 268.061 128.979C268.061 87.8785 223.538 54.566 165.339 54.566ZM162.56 174.702C126.729 174.702 97.7357 154.202 97.7357 128.979C97.7357 103.756 126.8 83.256 162.56 83.256C198.392 83.256 227.385 103.756 227.385 128.979C227.385 154.202 198.392 174.702 162.56 174.702Z" fill="white"/>
<path d="M29.3492 203.342C43.7486 203.342 55.4215 195.109 55.4215 184.952C55.4215 174.796 43.7486 166.562 29.3492 166.562C14.9498 166.562 3.27682 174.796 3.27682 184.952C3.27682 195.109 14.9498 203.342 29.3492 203.342Z" fill="#0000FF"/>
</svg>
